<svg xmlns="http://www.w3.org/2000/svg" width="48" height="48" viewBox="0 0 48 48"><defs><style>.cls-1{fill:#f1f2f2;}.cls-2{fill:#f6b445;}.cls-3{fill:#fed049;}.cls-4{fill:none;stroke:#474c54;stroke-linecap:round;stroke-linejoin:round;stroke-width:2px;}</style></defs><title>21-Email</title><g id="_21-Email" data-name="21-Email"><g id="_Group_" data-name="&lt;Group&gt;"><path class="cls-1" d="M41,19,24,30,7,19V2A.979.979,0,0,1,8,1H40a.979.979,0,0,1,1,1Z"/><polygon class="cls-2" points="7 13.91 7 19 1 15 7 9 7 13.91"/><polygon class="cls-2" points="47 15 41 19 41 13.95 41 9 47 15"/><path class="cls-3" d="M41,18.91,47,15V43a4.025,4.025,0,0,1-1.17,2.83L39,39,28,28l-.28-.43Z"/><path class="cls-2" d="M39,39l6.83,6.83A4.025,4.025,0,0,1,43,47H5a4.025,4.025,0,0,1-2.83-1.17L9,39,20,28l.28-.43L24,30l3.72-2.43L28,28Z"/><path class="cls-3" d="M20.28,27.57,20,28,9,39,2.17,45.83A4.025,4.025,0,0,1,1,43V15Z"/><polyline class="cls-4" points="41 18.91 27.72 27.57 24 30 20.28 27.57 7 18.91"/><path class="cls-4" d="M1,15V43a3.995,3.995,0,0,0,4,4H43a3.995,3.995,0,0,0,4-4V15"/><line class="cls-4" x1="28" y1="28" x2="39" y2="39"/><line class="cls-4" x1="20" y1="28" x2="9" y2="39"/><path class="cls-4" d="M7,14V2A.979.979,0,0,1,8,1H40a.979.979,0,0,1,1,1V14"/><line class="cls-4" x1="6.91" y1="9.09" x2="1" y2="15"/><line class="cls-4" x1="47" y1="15" x2="41.05" y2="9.05"/><line class="cls-4" x1="13" y1="6" x2="35" y2="6"/><line class="cls-4" x1="13" y1="11" x2="35" y2="11"/><line class="cls-4" x1="35" y1="16" x2="33" y2="16"/><line class="cls-4" x1="29" y1="16" x2="27" y2="16"/></g></g></svg>