<svg width="24" height="24" viewBox="0 0 24 24" fill="none" xmlns="http://www.w3.org/2000/svg">
<path d="M21.3477 13.9792C21.2311 13.6261 20.9257 13.3801 20.5307 13.3211C20.3444 13.2933 20.1311 13.3052 19.8787 13.3572C19.4388 13.448 19.1124 13.4825 18.8741 13.4892C19.7733 11.9712 20.5044 10.2401 20.9253 8.61048C21.6059 5.97552 21.2422 4.77513 20.8172 4.23217C19.6925 2.79503 18.0515 2.02297 16.0718 1.99935C15.0158 1.98644 14.0887 2.19495 13.6051 2.34491C13.1548 2.26546 12.6706 2.22106 12.1626 2.21288C11.2103 2.19768 10.3689 2.40527 9.64994 2.83196C9.25192 2.69733 8.6131 2.50758 7.87538 2.3865C6.14029 2.10166 4.74189 2.32361 3.71902 3.04621C2.48044 3.92114 1.90624 5.44122 2.01244 7.5643C2.04617 8.23837 2.42325 10.2893 3.01695 12.2343C3.35814 13.3522 3.72198 14.2806 4.09838 14.9939C4.63212 16.0053 5.20328 16.6009 5.84446 16.8148C6.20382 16.9345 6.85676 17.0183 7.5435 16.4464C7.63057 16.5518 7.74672 16.6565 7.90081 16.7539C8.09657 16.8773 8.33593 16.9782 8.57496 17.038C9.43641 17.2533 10.2434 17.1994 10.9317 16.8976C10.936 17.02 10.9393 17.137 10.942 17.238C10.9466 17.4019 10.9511 17.5625 10.9571 17.7128C10.9979 18.7286 11.067 19.5185 11.2718 20.0713C11.2831 20.1016 11.2982 20.1479 11.3141 20.1971C11.4163 20.5099 11.5871 21.0336 12.0218 21.4437C12.4718 21.8685 13.0162 21.9988 13.5148 21.9988C13.7649 21.9988 14.0035 21.966 14.2127 21.9212C14.9587 21.7613 15.8059 21.5177 16.4187 20.6451C16.9981 19.8202 17.2798 18.5777 17.3307 16.62C17.3373 16.5647 17.3434 16.5118 17.3493 16.4614L17.3614 16.3579L17.4979 16.37L17.5331 16.3723C18.2928 16.407 19.2218 16.2459 19.7923 15.9808C20.2432 15.7716 21.6878 15.0089 21.3477 13.9792Z" fill="black"/>
<path d="M20.0486 14.1795C17.7896 14.6455 17.6343 13.8806 17.6343 13.8806C20.0194 10.3415 21.0165 5.84896 20.1561 4.74944C17.8086 1.75019 13.7452 3.16868 13.6774 3.20542L13.6556 3.20939C13.2092 3.1167 12.7098 3.06155 12.1484 3.05237C11.1263 3.03565 10.3509 3.32036 9.7625 3.76655C9.7625 3.76655 2.51367 0.780293 2.85089 7.52229C2.92256 8.95654 4.90663 18.3748 7.27308 15.5301C8.13802 14.4898 8.9738 13.6103 8.9738 13.6103C9.38886 13.886 9.88578 14.0267 10.4067 13.9762L10.4472 13.9418C10.4346 14.071 10.4404 14.1973 10.4634 14.3469C9.85374 15.028 10.0329 15.1476 8.81422 15.3985C7.58102 15.6526 8.30546 16.105 8.77844 16.2234C9.35185 16.3667 10.6784 16.5698 11.5748 15.315L11.5391 15.4582C11.7779 15.6496 11.9456 16.7026 11.9175 17.6574C11.8893 18.612 11.8706 19.2675 12.0588 19.7795C12.2471 20.2915 12.4346 21.4434 14.0367 21.1001C15.3754 20.8132 16.0691 20.0698 16.1656 18.8297C16.2341 17.9481 16.3891 18.0785 16.3989 17.2902L16.5232 16.9171C16.6665 15.722 16.546 15.3365 17.3707 15.5158L17.5712 15.5334C18.1781 15.561 18.9727 15.4357 19.439 15.219C20.443 14.7531 21.0385 13.975 20.0485 14.1795H20.0486Z" fill="#336791"/>
<path d="M10.1868 8.16362C9.98322 8.1353 9.79885 8.16149 9.70556 8.23216C9.65318 8.27187 9.6369 8.31791 9.63249 8.34959C9.62082 8.43353 9.67962 8.52634 9.71575 8.57419C9.81798 8.7097 9.96734 8.80283 10.1152 8.82332C10.1366 8.82637 10.1579 8.82774 10.1791 8.82774C10.4256 8.82774 10.6498 8.63579 10.6695 8.49413C10.6942 8.3167 10.4366 8.19843 10.1868 8.1637" fill="white"/>
<path d="M16.9308 8.16935C16.9113 8.03026 16.6639 7.99063 16.429 8.02328C16.1944 8.05592 15.967 8.16185 15.986 8.30122C16.0012 8.40963 16.1969 8.59464 16.4286 8.59464C16.4482 8.59464 16.4679 8.59336 16.4878 8.59055C16.6425 8.56913 16.756 8.47091 16.8099 8.41432C16.8919 8.32801 16.9395 8.23187 16.9308 8.16935Z" fill="white"/>
<path d="M20.8003 14.1264C20.7142 13.866 20.4369 13.7822 19.9763 13.8773C18.6087 14.1596 18.1189 13.964 17.9581 13.8456C19.0211 12.2262 19.8957 10.2685 20.3674 8.44208C20.5909 7.5769 20.7144 6.7734 20.7245 6.1185C20.7356 5.39967 20.6132 4.87147 20.3607 4.54881C19.3427 3.24799 17.8485 2.55022 16.0399 2.53109C14.7966 2.51709 13.746 2.8353 13.5424 2.92477C13.1136 2.81813 12.646 2.75264 12.137 2.74429C11.2036 2.72917 10.3968 2.95265 9.72881 3.40818C9.43863 3.30017 8.68876 3.04273 7.77168 2.89501C6.18627 2.63978 4.9264 2.83317 4.02733 3.4701C2.95456 4.23012 2.45933 5.58873 2.55526 7.50811C2.58755 8.15383 2.95549 10.1403 3.53611 12.0427C4.30042 14.5467 5.13127 15.9641 6.00543 16.2557C6.10774 16.2899 6.2257 16.3137 6.3558 16.3137C6.67469 16.3137 7.06565 16.17 7.47241 15.681C7.96857 15.0858 8.48177 14.5051 9.01142 13.9395C9.35505 14.1239 9.73258 14.2269 10.1187 14.2373C10.1194 14.2474 10.1204 14.2575 10.1214 14.2675C10.0549 14.3468 9.98982 14.4271 9.92613 14.5087C9.65862 14.8483 9.60291 14.919 8.74178 15.0963C8.49681 15.1469 7.8462 15.2809 7.83666 15.737C7.82631 16.2353 8.60574 16.4446 8.69454 16.4668C9.004 16.5442 9.30211 16.5824 9.58643 16.5824C10.2779 16.5824 10.8864 16.3552 11.3727 15.9155C11.3577 17.6918 11.4318 19.4422 11.6451 19.9756C11.8198 20.4122 12.2465 21.4792 13.5945 21.4791C13.7923 21.4791 14.01 21.4561 14.2495 21.4047C15.6564 21.1032 16.2673 20.4814 16.5036 19.1105C16.6301 18.3779 16.8471 16.6285 16.9492 15.6901C17.1646 15.7573 17.4419 15.788 17.7417 15.788C18.367 15.788 19.0886 15.6551 19.5411 15.4451C20.0494 15.209 20.9667 14.6298 20.8003 14.1264ZM17.4501 7.78533C17.4454 8.06239 17.4073 8.31386 17.3669 8.57639C17.3233 8.85874 17.2784 9.15064 17.2671 9.50498C17.2559 9.84986 17.299 10.2084 17.3406 10.5551C17.4248 11.2555 17.5111 11.9765 17.1768 12.6879C17.1213 12.5895 17.0718 12.4878 17.0287 12.3834C16.9872 12.2827 16.8969 12.1209 16.772 11.8969C16.2859 11.0253 15.1476 8.98392 15.7304 8.15094C15.9039 7.903 16.3444 7.64809 17.4501 7.78533ZM16.1098 3.09206C17.7303 3.12783 19.0122 3.73404 19.9198 4.89381C20.6159 5.78337 19.8494 9.83101 17.6304 13.3229C17.6081 13.2946 17.5856 13.2663 17.5631 13.2381L17.535 13.203C18.1084 12.256 17.9963 11.319 17.8965 10.4884C17.8555 10.1474 17.8167 9.82547 17.8266 9.52299C17.8368 9.20246 17.8791 8.92749 17.9202 8.66162C17.9705 8.33399 18.0218 7.99501 18.0077 7.59539C18.0182 7.55343 18.0225 7.5039 18.017 7.44511C17.9809 7.06193 17.5433 5.915 16.6516 4.87692C16.1638 4.30913 15.4524 3.67372 14.4811 3.24519C14.8989 3.1586 15.4702 3.07782 16.1098 3.09206ZM7.04195 15.323C6.59379 15.8619 6.28433 15.7586 6.18254 15.7247C5.51942 15.5035 4.74997 14.1019 4.07157 11.8793C3.48453 9.95618 3.1415 8.02232 3.11431 7.48008C3.02864 5.76504 3.44435 4.56983 4.35003 3.92752C5.82395 2.8823 8.24719 3.50792 9.22094 3.82521C9.20694 3.83904 9.19238 3.85196 9.17854 3.86599C7.58066 5.47968 7.61856 8.23669 7.62253 8.40526C7.62237 8.47027 7.62782 8.56236 7.63528 8.68897C7.66276 9.15269 7.71397 10.0157 7.57725 10.9931C7.45023 11.9014 7.73021 12.7903 8.34525 13.4321C8.40838 13.4978 8.47471 13.5604 8.54406 13.6196C8.27029 13.9128 7.67531 14.5612 7.04195 15.323ZM8.74944 13.0448C8.25373 12.5275 8.02861 11.808 8.13168 11.0706C8.27598 10.0382 8.22276 9.13893 8.19409 8.65584C8.19008 8.58822 8.18651 8.52899 8.18446 8.48226C8.41788 8.27527 9.49964 7.69573 10.271 7.87248C10.6231 7.95306 10.8376 8.19277 10.9267 8.60511C11.3883 10.7398 10.9878 11.6295 10.6661 12.3445C10.5998 12.4918 10.5371 12.631 10.4836 12.775L10.4421 12.8864C10.3371 13.1679 10.2395 13.4297 10.1789 13.6782C9.65192 13.6767 9.13928 13.4515 8.74944 13.0447V13.0448ZM8.83034 15.9236C8.67645 15.8852 8.53804 15.8184 8.45687 15.7631C8.52469 15.7312 8.64537 15.6877 8.85472 15.6446C9.86782 15.4361 10.0243 15.2888 10.3659 14.855C10.4443 14.7555 10.5331 14.6428 10.656 14.5055L10.6562 14.5053C10.8393 14.3002 10.9231 14.335 11.075 14.3981C11.1982 14.449 11.3181 14.6033 11.3667 14.7731C11.3897 14.8534 11.4155 15.0056 11.331 15.1241C10.6173 16.1234 9.57724 16.1106 8.83034 15.9236ZM14.1322 20.8574C12.8929 21.1229 12.454 20.4905 12.1649 19.7677C11.9783 19.3009 11.8865 17.1964 11.9516 14.8723C11.9524 14.8414 11.948 14.8115 11.9395 14.7834C11.9319 14.7279 11.9203 14.673 11.9049 14.6192C11.8081 14.281 11.5723 13.9982 11.2893 13.8808C11.1769 13.8343 10.9706 13.7489 10.7226 13.8123C10.7755 13.5944 10.8672 13.3484 10.9666 13.082L11.0083 12.9699C11.0553 12.8437 11.1142 12.7127 11.1765 12.5742C11.5132 11.8261 11.9744 10.8015 11.4739 8.48684C11.2864 7.61985 10.6604 7.19645 9.71132 7.29479C9.14237 7.35366 8.62182 7.58323 8.36221 7.71486C8.30639 7.7431 8.25533 7.77045 8.20764 7.79704C8.28008 6.92352 8.55384 5.29098 9.57792 4.25808C10.2228 3.60787 11.0815 3.28674 12.1277 3.30406C14.1893 3.33775 15.5113 4.39572 16.2574 5.27739C16.9003 6.03708 17.2484 6.80236 17.3873 7.21514C16.3425 7.10885 15.6319 7.31508 15.2717 7.83009C14.488 8.95035 15.7004 11.1246 16.2831 12.1696C16.39 12.3611 16.4822 12.5266 16.5112 12.5969C16.701 13.0568 16.9466 13.3638 17.1259 13.5879C17.1809 13.6566 17.2343 13.7232 17.2748 13.7813C16.9584 13.8726 16.39 14.0834 16.4418 15.137C16.4 15.6657 16.1029 18.1409 15.952 19.0154C15.7527 20.1708 15.3276 20.6011 14.1322 20.8574ZM19.3054 14.9374C18.9818 15.0876 18.4403 15.2002 17.9259 15.2244C17.3577 15.251 17.0684 15.1608 17.0004 15.1053C16.9685 14.4487 17.2129 14.3801 17.4715 14.3075C17.5121 14.2961 17.5518 14.2849 17.5901 14.2715C17.6138 14.2909 17.6399 14.3101 17.6685 14.329C18.1251 14.6304 18.9396 14.6628 20.0896 14.4255L20.1022 14.423C19.9471 14.568 19.6817 14.7626 19.3054 14.9374Z" fill="white"/>
</svg>
